<?xml version="1.0" encoding="UTF-8" standalone="no"?>
<!-- Created with Inkscape (http://www.inkscape.org/) -->

<svg
   xmlns:dc="http://purl.org/dc/elements/1.1/"
   xmlns:cc="http://creativecommons.org/ns#"
   xmlns:rdf="http://www.w3.org/1999/02/22-rdf-syntax-ns#"
   xmlns:svg="http://www.w3.org/2000/svg"
   xmlns="http://www.w3.org/2000/svg"
   xmlns:sodipodi="http://sodipodi.sourceforge.net/DTD/sodipodi-0.dtd"
   xmlns:inkscape="http://www.inkscape.org/namespaces/inkscape"
   version="1.1"
   id="svg2"
   xml:space="preserve"
   width="238.48016"
   height="69.013268"
   viewBox="0 0 238.48016 69.013268"
   sodipodi:docname="LogoOnly_white.svg"
   inkscape:version="0.92.2 5c3e80d, 2017-08-06"><metadata
     id="metadata8"><rdf:RDF><cc:Work
         rdf:about=""><dc:format>image/svg+xml</dc:format><dc:type
           rdf:resource="http://purl.org/dc/dcmitype/StillImage" /><dc:title></dc:title></cc:Work></rdf:RDF></metadata><defs
     id="defs6"><clipPath
       clipPathUnits="userSpaceOnUse"
       id="clipPath20"><path
         d="M 0,0 H 269 V 160 H 0 Z"
         id="path18"
         inkscape:connector-curvature="0" /></clipPath><clipPath
       clipPathUnits="userSpaceOnUse"
       id="clipPath80"><path
         d="m 86.091,78.647 c 0,-3.084 2.334,-5.444 5.225,-5.444 v 0 c 2.894,0 5.232,2.36 5.232,5.444 v 0 c 0,3.017 -2.338,5.305 -5.232,5.305 v 0 c -2.891,0 -5.225,-2.288 -5.225,-5.305"
         id="path78"
         inkscape:connector-curvature="0" /></clipPath><clipPath
       clipPathUnits="userSpaceOnUse"
       id="clipPath86"><path
         d="M 0,0 H 269 V 160 H 0 Z"
         id="path84"
         inkscape:connector-curvature="0" /></clipPath><clipPath
       clipPathUnits="userSpaceOnUse"
       id="clipPath110"><path
         d="M 0,0 H 269 V 160 H 0 Z"
         id="path108"
         inkscape:connector-curvature="0" /></clipPath></defs><sodipodi:namedview
     pagecolor="#ffffff"
     bordercolor="#666666"
     borderopacity="1"
     objecttolerance="10"
     gridtolerance="10"
     guidetolerance="10"
     inkscape:pageopacity="0"
     inkscape:pageshadow="2"
     inkscape:window-width="1112"
     inkscape:window-height="792"
     id="namedview4"
     showgrid="false"
     inkscape:zoom="1.7908932"
     inkscape:cx="84.735831"
     inkscape:cy="-33.575162"
     inkscape:window-x="786"
     inkscape:window-y="184"
     inkscape:window-maximized="0"
     inkscape:current-layer="g10"
     inkscape:pagecheckerboard="true" /><g
     id="g10"
     inkscape:groupmode="layer"
     inkscape:label="LogoOnly"
     transform="matrix(1.3333333,0,0,-1.3333333,-61.99156,139.568)"><g
       id="g12" /><g
       id="g14"><g
         id="g16"
         clip-path="url(#clipPath20)"><path
           d="m 10.8,160.56 v -6.57 z"
           style="fill:#231f20;fill-opacity:1;fill-rule:nonzero;stroke:none"
           id="path22"
           inkscape:connector-curvature="0" /><g
           id="g24"
           transform="translate(10.8003,160.5605)"><path
             d="M 0,0 V -6.57"
             style="fill:none;stroke:#231f20;stroke-width:0.25;stroke-linecap:butt;stroke-linejoin:miter;stroke-miterlimit:10;stroke-dasharray:none;stroke-opacity:1"
             id="path26"
             inkscape:connector-curvature="0" /></g><path
           d="M 0,149.76 H 6.57 Z"
           style="fill:#231f20;fill-opacity:1;fill-rule:nonzero;stroke:none"
           id="path28"
           inkscape:connector-curvature="0" /><g
           id="g30"
           transform="translate(-5e-4,149.7598)"><path
             d="M 0,0 H 6.57"
             style="fill:none;stroke:#231f20;stroke-width:0.25;stroke-linecap:butt;stroke-linejoin:miter;stroke-miterlimit:10;stroke-dasharray:none;stroke-opacity:1"
             id="path32"
             inkscape:connector-curvature="0" /></g><path
           d="M 0,10.8018 H 6.57 Z"
           style="fill:#231f20;fill-opacity:1;fill-rule:nonzero;stroke:none"
           id="path34"
           inkscape:connector-curvature="0" /><g
           id="g36"
           transform="translate(-5e-4,10.8018)"><path
             d="M 0,0 H 6.57"
             style="fill:none;stroke:#231f20;stroke-width:0.25;stroke-linecap:butt;stroke-linejoin:miter;stroke-miterlimit:10;stroke-dasharray:none;stroke-opacity:1"
             id="path38"
             inkscape:connector-curvature="0" /></g><path
           d="m 262.71,149.76 h 6.57 z"
           style="fill:#231f20;fill-opacity:1;fill-rule:nonzero;stroke:none"
           id="path40"
           inkscape:connector-curvature="0" /><g
           id="g42"
           transform="translate(262.7104,149.7598)"><path
             d="M 0,0 H 6.57"
             style="fill:none;stroke:#231f20;stroke-width:0.25;stroke-linecap:butt;stroke-linejoin:miter;stroke-miterlimit:10;stroke-dasharray:none;stroke-opacity:1"
             id="path44"
             inkscape:connector-curvature="0" /></g><path
           d="m 262.71,10.8018 h 6.57 z"
           style="fill:#231f20;fill-opacity:1;fill-rule:nonzero;stroke:none"
           id="path46"
           inkscape:connector-curvature="0" /><g
           id="g48"
           transform="translate(262.7104,10.8018)"><path
             d="M 0,0 H 6.57"
             style="fill:none;stroke:#231f20;stroke-width:0.25;stroke-linecap:butt;stroke-linejoin:miter;stroke-miterlimit:10;stroke-dasharray:none;stroke-opacity:1"
             id="path50"
             inkscape:connector-curvature="0" /></g><path
           d="m 258.48,160.56 v -6.57 z"
           style="fill:#231f20;fill-opacity:1;fill-rule:nonzero;stroke:none"
           id="path52"
           inkscape:connector-curvature="0" /><g
           id="g54"
           transform="translate(258.48,160.5605)"><path
             d="M 0,0 V -6.57"
             style="fill:none;stroke:#231f20;stroke-width:0.25;stroke-linecap:butt;stroke-linejoin:miter;stroke-miterlimit:10;stroke-dasharray:none;stroke-opacity:1"
             id="path56"
             inkscape:connector-curvature="0" /></g><path
           d="m 10.8,0.3177 v 6.568 z"
           style="fill:#231f20;fill-opacity:1;fill-rule:nonzero;stroke:none"
           id="path58"
           inkscape:connector-curvature="0" /><g
           id="g60"
           transform="translate(10.8003,6.8857)"><path
             d="M 0,0 V -6.568"
             style="fill:none;stroke:#231f20;stroke-width:0.25;stroke-linecap:butt;stroke-linejoin:miter;stroke-miterlimit:10;stroke-dasharray:none;stroke-opacity:1"
             id="path62"
             inkscape:connector-curvature="0" /></g><path
           d="m 258.48,0.3177 v 6.568 z"
           style="fill:#231f20;fill-opacity:1;fill-rule:nonzero;stroke:none"
           id="path64"
           inkscape:connector-curvature="0" /><g
           id="g66"
           transform="translate(258.48,6.8857)"><path
             d="M 0,0 V -6.568"
             style="fill:none;stroke:#231f20;stroke-width:0.25;stroke-linecap:butt;stroke-linejoin:miter;stroke-miterlimit:10;stroke-dasharray:none;stroke-opacity:1"
             id="path68"
             inkscape:connector-curvature="0" /></g><path
           d="M 10.8,10.8 H 258.48 V 149.76 H 10.8 Z"
           style="fill:#ffffff;fill-opacity:0;fill-rule:nonzero;stroke:none"
           id="path70"
           inkscape:connector-curvature="0" /></g></g><g
       id="g74"><g
         id="g76"
         clip-path="url(#clipPath80)"><g
           id="g82"
           clip-path="url(#clipPath86)" /></g></g><ellipse
       style="fill:#5f9fdb;fill-opacity:1;stroke:none;stroke-width:0.75;stroke-opacity:0;paint-order:stroke fill markers"
       id="path925"
       cx="91.958069"
       cy="-78.383438"
       transform="scale(1,-1)"
       rx="7.2502236"
       ry="7.2502232" /><g
       id="g104"><g
         id="g106"
         clip-path="url(#clipPath110)"><path
           d="m 126.673,68.595 h 3.725 v 18.232 h -3.725 z"
           style="fill:#5f9fdb;fill-opacity:1;fill-rule:nonzero;stroke:none"
           id="path112"
           inkscape:connector-curvature="0" /><path
           d="m 126.613,90.44 h 3.852 v 4.09 h -3.852 z"
           style="fill:#5f9fdb;fill-opacity:1;fill-rule:nonzero;stroke:none"
           id="path114"
           inkscape:connector-curvature="0" /><path
           d="m 121.2534,74.981 c -0.025,-0.027 -2.484,-2.898 -6.607,-2.898 -4.762,0 -8.35,4.123 -8.35,9.593 0,5.282 3.547,9.26 8.252,9.26 2.803,0 5.658,-1.26 5.658,-2.494 v -2.568 h 3.756 v 2.898 c 0,4.16 -5.523,6.031 -9.445,6.031 -6.86,0 -12.041,-5.644 -12.041,-13.127 0,-7.674 5.232,-13.458 12.17,-13.458 5.886,0 9.154,3.97 9.291,4.14 l 0.646,0.797 -2.424,2.922 z"
           style="fill:#5f9fdb;fill-opacity:1;fill-rule:nonzero;stroke:none"
           id="path116"
           inkscape:connector-curvature="0" /><path
           d="m 143.2085,71.8735 c -2.832,0 -4.318,2.926 -4.318,5.813 0,3.712 1.621,5.843 4.447,5.843 2.623,0 4.322,-2.279 4.322,-5.812 0,-3.496 -1.789,-5.844 -4.451,-5.844 m 0.193,15.35 c -2.316,0 -3.888,-0.815 -4.884,-1.641 -0.389,0.664 -1.147,1.262 -2.633,1.262 h -2.748 v -3.602 h 2.062 v -21.49 h 3.721 v 7.771 c 1.203,-0.86 2.664,-1.306 4.289,-1.306 4.854,0 8.24,3.904 8.24,9.5 0,5.685 -3.234,9.506 -8.047,9.506"
           style="fill:#5f9fdb;fill-opacity:1;fill-rule:nonzero;stroke:none"
           id="path118"
           inkscape:connector-curvature="0" /><path
           d="m 169.2358,79.8423 c 0,1.824 0,7.381 -6.43,7.381 -2.535,0 -4.345,-1.029 -5.463,-1.955 v 6.32 c 0,1.871 -1.109,2.942 -3.035,2.942 h -2.75 v -3.598 h 2.063 v -22.338 h 3.722 v 8.934 c 0,0.738 0.071,1.341 0.211,1.845 0.661,2.448 2.821,4.157 5.252,4.157 2.098,0 2.705,-0.934 2.705,-4.163 v -7.74 c 0,-1.957 1.079,-3.033 3.036,-3.033 h 2.75 v 3.596 h -2.061 z"
           style="fill:#5f9fdb;fill-opacity:1;fill-rule:nonzero;stroke:none"
           id="path120"
           inkscape:connector-curvature="0" /><path
           d="m 180.562,83.5942 c 1.967,0 3.32,-1.164 3.762,-3.219 h -8.399 c 0.778,2 2.506,3.219 4.637,3.219 m 7.625,-5.803 c 0.018,0.143 0.074,0.619 0.074,1.004 0,4.195 -2.369,8.428 -7.666,8.428 -4.426,0 -8.902,-3.277 -8.902,-9.537 0,-5.49 3.945,-9.468 9.377,-9.468 3.875,0 6.379,2.425 6.484,2.528 l 0.699,0.688 -2.101,3.197 -1.037,-1.103 c -0.014,-0.018 -1.578,-1.623 -4.045,-1.623 -2.266,0 -5.004,1.279 -5.506,4.839 h 12.492 z"
           style="fill:#5f9fdb;fill-opacity:1;fill-rule:nonzero;stroke:none"
           id="path122"
           inkscape:connector-curvature="0" /><path
           d="m 198.8569,86.9692 c -1.527,0 -2.953,-0.586 -4.082,-1.664 -0.332,0.762 -1.086,1.539 -2.768,1.539 h -2.75 v -3.602 h 2.057 v -14.648 h 3.727 v 8.047 c 0,1.066 0.15,2.099 0.423,2.988 0.325,1.074 1.313,3.586 3.582,3.586 0.241,0 0.53,-0.049 0.532,-0.049 l 1.392,-0.23 v 3.707 l -0.945,0.205 c -0.137,0.027 -0.623,0.121 -1.168,0.121"
           style="fill:#5f9fdb;fill-opacity:1;fill-rule:nonzero;stroke:none"
           id="path124"
           inkscape:connector-curvature="0" /><path
           d="m 209.4507,79.5649 c -2.381,0.949 -3.379,1.494 -3.379,2.436 0,1.013 0.975,1.529 2.895,1.529 0.972,0 1.879,-0.442 1.879,-0.643 v -1.959 h 3.724 v 2.403 c 0,2.836 -3.474,3.892 -5.668,3.892 -4.08,0 -6.617,-2.039 -6.617,-5.32 0,-3.522 3.318,-4.838 5.738,-5.801 2.395,-0.951 3.399,-1.498 3.399,-2.412 0,-1.408 -1.705,-1.785 -2.709,-1.785 -2.573,0 -3.875,1.816 -3.928,1.889 l -0.826,1.21 -2.645,-2.732 0.543,-0.805 c 0.088,-0.131 2.254,-3.249 6.826,-3.249 3.78,0 6.522,2.3 6.522,5.472 0,3.596 -3.324,4.916 -5.754,5.875"
           style="fill:#5f9fdb;fill-opacity:1;fill-rule:nonzero;stroke:none"
           id="path126"
           inkscape:connector-curvature="0" /><path
           d="m 75.787,68.595 h 3.725 v 18.232 h -3.725 z"
           style="fill:#ffffff;fill-opacity:1;fill-rule:nonzero;stroke:none"
           id="path128"
           inkscape:connector-curvature="0" /><path
           d="m 75.724,90.44 h 3.85 v 4.09 h -3.85 z"
           style="fill:#ffffff;fill-opacity:1;fill-rule:nonzero;stroke:none"
           id="path130"
           inkscape:connector-curvature="0" /><path
           d="m 86.443,62.376 h 9.752 v 3.031 h -9.752 z"
           style="fill:#ffffff;fill-opacity:1;fill-rule:nonzero;stroke:none"
           id="path132"
           inkscape:connector-curvature="0" /><path
           d="m 65.2827,84.0747 h -5.182 v 6.637 h 5.151 c 2.033,0 3.201,-1.198 3.201,-3.287 0,-2.067 -1.211,-3.35 -3.17,-3.35 m -5.182,-3.818 h 5.381 c 2.406,0 3.897,-1.516 3.897,-3.957 0,-2.471 -1.407,-3.887 -3.864,-3.887 h -5.414 z m 10.381,2.187 c 1.256,1.248 1.918,2.957 1.918,4.981 0,4.181 -2.914,7.105 -7.084,7.105 h -11.24 v -3.818 h 2.15 v -18.936 c 0,-2.053 1.116,-3.181 3.147,-3.181 h 6.275 c 4.518,0 7.676,3.167 7.676,7.705 0,2.56 -1.051,4.816 -2.842,6.144"
           style="fill:#ffffff;fill-opacity:1;fill-rule:nonzero;stroke:none"
           id="path134"
           inkscape:connector-curvature="0" /><path
           d="m 91.3159,72.5806 c -3.25,0 -5.793,2.676 -5.793,6.092 0,3.308 2.543,5.896 5.793,5.896 3.256,0 5.803,-2.588 5.803,-5.896 0,-3.416 -2.547,-6.092 -5.803,-6.092 m 0,15.66 c -5.361,0 -9.563,-4.201 -9.563,-9.568 0,-5.473 4.202,-9.761 9.563,-9.761 5.367,0 9.566,4.288 9.566,9.761 0,5.367 -4.199,9.568 -9.566,9.568"
           style="fill:#ffffff;fill-opacity:1;fill-rule:nonzero;stroke:#000000;paint-order:markers stroke fill;stroke-opacity:0;stroke-width:0.99975002;stroke-miterlimit:4;stroke-dasharray:none;stroke-linejoin:miter"
           id="path136"
           inkscape:connector-curvature="0" /><path
           d="m 86.443,91.342 h 9.752 v 3.088 h -9.752 z"
           style="fill:#ffffff;fill-opacity:1;fill-rule:nonzero;stroke:none"
           id="path138"
           inkscape:connector-curvature="0" /><path
           d="m 90.7476,88.9048 c 0.477,-0.025 0.771,0.008 0.947,0.045 -0.187,-0.172 -0.388,-0.32 -0.552,-0.432 -0.131,0.125 -0.27,0.256 -0.395,0.387 m 0.789,2.348 c -0.193,-0.012 -0.406,-0.02 -0.588,-0.026 0.119,0.092 0.235,0.172 0.338,0.246 0.084,-0.074 0.168,-0.148 0.25,-0.22 m -1.014,-0.409 c 0.067,0.079 0.147,0.161 0.239,0.239 l 1.119,-0.178 c 0.076,-0.09 0.144,-0.182 0.209,-0.281 -0.559,0.01 -1.276,0.158 -1.567,0.22 m -0.142,-1.511 c -0.02,0.039 -0.039,0.072 -0.051,0.097 -0.025,0.059 -0.059,0.139 -0.084,0.241 0.123,-0.03 0.33,-0.065 0.606,-0.075 0.384,-0.009 1.017,-0.099 1.267,-0.134 -0.064,-0.106 -0.139,-0.209 -0.226,-0.307 -0.862,0.035 -1.323,0.131 -1.512,0.178 m 1.89,0.724 c 0.006,-0.072 0,-0.146 -0.015,-0.218 -0.092,0.041 -0.291,0.103 -0.754,0.146 -0.559,0.059 -1.076,-0.074 -1.293,-0.142 -0.025,0.162 -0.018,0.353 0.053,0.56 0.099,-0.025 0.291,-0.07 0.689,-0.107 0.5,-0.055 0.985,0.029 1.25,0.086 0.035,-0.102 0.063,-0.206 0.07,-0.325 m 0.213,0.756 c -0.187,0.307 -0.556,0.602 -0.92,0.86 0.504,0.357 0.784,0.58 1.065,1.132 l -0.358,0.393 c 0,0 -0.082,-0.479 -1.107,-1.209 -0.01,-0.01 -0.021,-0.016 -0.029,-0.02 -0.235,0.157 -0.43,0.288 -0.51,0.383 0,0 -0.076,-0.146 0.295,-0.537 -0.871,-0.646 -1.354,-1.176 -1.119,-2.15 0.134,-0.572 0.586,-0.992 1.051,-1.36 -0.333,-0.257 -0.573,-0.509 -0.573,-0.509 l 0.41,-0.352 c 0,0 0.313,0.197 0.686,0.477 0.215,-0.162 0.4,-0.315 0.539,-0.473 0.287,-0.33 0.057,0.266 -0.311,0.646 0.36,0.284 0.721,0.616 0.881,0.905 0.373,0.654 0.407,1.156 0,1.814"
           style="fill:#ffffff;fill-opacity:1;fill-rule:nonzero;stroke:none"
           id="path140"
           inkscape:connector-curvature="0" /><path
           d="m 91.8569,68.3779 c -0.563,0.029 -0.906,-0.008 -1.109,-0.055 0.22,0.203 0.453,0.373 0.644,0.51 0.158,-0.146 0.32,-0.305 0.465,-0.455 m -0.926,-2.764 c 0.229,0.01 0.479,0.02 0.694,0.026 -0.143,-0.108 -0.282,-0.203 -0.401,-0.289 -0.099,0.088 -0.197,0.175 -0.293,0.263 m 1.196,0.477 c -0.079,-0.094 -0.176,-0.188 -0.288,-0.279 l -1.312,0.205 c -0.09,0.107 -0.174,0.218 -0.242,0.334 0.646,-0.012 1.498,-0.186 1.842,-0.26 m 0.166,1.779 c 0.029,-0.039 0.05,-0.082 0.064,-0.113 0.025,-0.07 0.066,-0.164 0.1,-0.281 -0.151,0.031 -0.395,0.072 -0.717,0.082 -0.455,0.017 -1.201,0.121 -1.494,0.164 0.074,0.123 0.164,0.246 0.263,0.359 1.014,-0.041 1.559,-0.152 1.784,-0.211 m -2.225,-0.851 c -0.01,0.089 0,0.171 0.012,0.252 0.111,-0.043 0.339,-0.116 0.888,-0.168 0.66,-0.063 1.27,0.093 1.528,0.168 0.027,-0.192 0.021,-0.416 -0.063,-0.661 -0.111,0.032 -0.344,0.08 -0.812,0.129 -0.592,0.063 -1.164,-0.037 -1.471,-0.103 -0.045,0.119 -0.074,0.246 -0.082,0.383 m -0.256,-0.889 c 0.225,-0.359 0.656,-0.711 1.08,-1.014 -0.588,-0.42 -0.912,-0.683 -1.25,-1.336 l 0.426,-0.461 c 0,0 0.094,0.561 1.303,1.424 0.013,0.008 0.021,0.016 0.033,0.026 0.279,-0.188 0.506,-0.344 0.603,-0.454 0,0 0.086,0.172 -0.351,0.633 1.033,0.762 1.596,1.385 1.322,2.535 -0.162,0.672 -0.689,1.17 -1.244,1.596 0.394,0.304 0.68,0.607 0.68,0.607 l -0.487,0.412 c 0,0 -0.369,-0.234 -0.806,-0.56 -0.248,0.187 -0.475,0.369 -0.635,0.552 -0.34,0.393 -0.068,-0.306 0.367,-0.759 -0.424,-0.332 -0.853,-0.724 -1.041,-1.062 -0.435,-0.774 -0.475,-1.368 0,-2.139"
           style="fill:#ffffff;fill-opacity:1;fill-rule:nonzero;stroke:none"
           id="path142"
           inkscape:connector-curvature="0" /></g></g></g></svg>